<svg width="82" height="70" viewBox="0 0 82 70" fill="none" xmlns="http://www.w3.org/2000/svg">
<path d="M36.0234 49.8649C38.2796 47.582 39.2444 44.5802 38.6707 41.6289L36.983 32.9492H16.9788L15.2911 41.6289C14.7172 44.5802 15.6822 47.582 17.9384 49.8649C19.6698 51.6167 22.0144 52.7923 24.5883 53.2458V65.8984H18.2054V70H35.7564V65.8984H29.3735V53.2458C31.9476 52.7923 34.2921 51.6168 36.0234 49.8649Z" fill="#EBB035"/>
<path d="M66.5384 37.0508H55.373V52.0898H66.5384V37.0508Z" fill="#EBB035"/>
<path d="M57.7656 0H43.4102V8.20312H57.7656V0Z" fill="#EBB035"/>
<path d="M66.5378 32.9492V28.9844C66.5378 24.4111 62.7757 20.5766 57.765 19.6353V12.3047H43.4095V19.6353C38.4491 20.5671 34.7146 24.335 34.6402 28.8477H41.0362L41.7026 32.2749L43.3904 40.9546C44.1959 45.0974 42.8415 49.3113 39.6742 52.5161C38.2709 53.936 36.5506 55.1019 34.6367 55.9532V61.7969H40.5411V70H66.5378V56.1914H50.5872V32.9492H66.5378Z" fill="#EBB035"/>
</svg>
