<svg width="70" height="70" viewBox="0 0 70 70" fill="none" xmlns="http://www.w3.org/2000/svg">
<path d="M13.0338 55.7363C10.6114 55.7363 8.64062 57.7071 8.64062 60.1295C8.86156 65.9498 17.207 65.9481 17.4271 60.1295C17.4271 57.7071 15.4563 55.7363 13.0338 55.7363Z" fill="#EBB035"/>
<path d="M56.9654 55.7363C54.5431 55.7363 52.5723 57.7071 52.5723 60.1295C52.7932 65.9498 61.1387 65.9481 61.3588 60.1295C61.3586 57.7071 59.3878 55.7363 56.9654 55.7363Z" fill="#EBB035"/>
<path d="M43.9322 5.50586H2.05078C0.918203 5.50586 0 6.42406 0 7.55664V58.0789C0 59.2114 0.918203 60.1296 2.05078 60.1296H4.53906C4.96754 48.8728 21.1042 48.8814 21.5287 60.1296H45.983V7.55664C45.983 6.42406 45.0648 5.50586 43.9322 5.50586ZM29.1426 45.0451C31.8607 45.146 31.8586 49.0467 29.1426 49.1466H16.8416C14.1235 49.0457 14.1255 45.145 16.8416 45.0451H20.9413V38.7038C14.954 37.5701 10.921 31.572 12.4599 25.4113L14.852 15.8456C15.0804 14.9328 15.9005 14.2924 16.8416 14.2924H29.1426C30.0837 14.2924 30.904 14.9329 31.1322 15.8459L33.5229 25.4098C35.0644 31.5806 31.0205 37.572 25.0429 38.704V45.0449L29.1426 45.0451Z" fill="#EBB035"/>
<path d="M24.4405 23.0916C26.1207 24.7719 28.1823 24.1162 28.8777 23.7398L27.5416 18.3936H18.4431L17.8242 20.869C20.1728 20.5496 22.639 21.2904 24.4405 23.0916Z" fill="#EBB035"/>
<path d="M29.7447 27.8319C26.9752 28.8218 23.7571 28.2097 21.5432 25.9958C19.8982 24.3866 17.7683 24.7895 16.6268 25.6568L16.4388 26.4072C15.3765 30.6601 18.5871 34.7949 22.9889 34.7949C27.0285 34.7949 29.8649 31.4072 29.7447 27.8319Z" fill="#EBB035"/>
<path d="M67.9485 40.6521H56.8196C55.687 40.6521 54.7688 39.7339 54.7688 38.6013V29.8148C54.7688 28.6822 55.687 27.764 56.8196 27.764H61.9345L61.1516 24.6325C60.9235 23.7196 60.1031 23.0791 59.1621 23.0791H50.084V55.1582C54.8314 48.5572 65.4375 51.8948 65.4605 60.13H67.9485C69.0811 60.13 69.9993 59.2118 69.9993 58.0792V42.7029C69.9993 41.5703 69.0811 40.6521 67.9485 40.6521Z" fill="#EBB035"/>
<path d="M58.8711 36.55H64.1318L62.9605 31.8652H58.8711V36.55Z" fill="#EBB035"/>
</svg>
