<svg width="70" height="70" viewBox="0 0 70 70" fill="none" xmlns="http://www.w3.org/2000/svg">
<g clip-path="url(#clip0_303_16873)">
<path d="M34.9793 28.0723C29.2677 28.0723 24.6211 32.7196 24.6211 38.4321C24.6211 44.1446 29.2679 48.792 34.9793 48.792C40.6907 48.792 45.3377 44.1446 45.3377 38.4321C45.3377 32.7196 40.6909 28.0723 34.9793 28.0723Z" fill="#EBB035"/>
<path d="M17.9844 69.9883H51.9843L52.0175 63.3949C52.0175 57.6241 48.5545 52.2532 43.3003 49.7256C40.8976 51.498 37.9852 52.4626 34.9799 52.4626C31.982 52.4626 29.0758 51.5024 26.6762 49.7377C21.4371 52.2707 17.9844 57.6371 17.9844 63.404V69.9883Z" fill="#EBB035"/>
<path d="M15.733 35.8887C11.2439 35.8887 7.5918 39.5414 7.5918 44.0311C7.5918 48.5208 11.2439 52.1737 15.733 52.1737C16.6896 52.1737 17.622 52.0099 18.5112 51.6861C19.8092 50.0701 21.3375 48.6895 23.0651 47.5724C23.2347 47.2218 23.3786 46.8603 23.4957 46.4899C21.848 44.1403 20.9497 41.314 20.9497 38.4326C20.9497 38.2226 20.9548 38.0095 20.9649 37.7939C19.5012 36.5601 17.6712 35.8887 15.733 35.8887Z" fill="#EBB035"/>
<path d="M9.05029 53.7695C4.96128 55.8456 2.27734 60.1665 2.27734 64.8255V69.9998L14.313 69.9902V63.4046C14.313 60.8213 14.8853 58.2346 15.9617 55.8422C15.8858 55.8437 15.8098 55.8442 15.7335 55.8442C13.3415 55.8444 11.0091 55.1143 9.05029 53.7695Z" fill="#EBB035"/>
<path d="M51.5055 51.7046C52.379 52.016 53.2945 52.1737 54.2338 52.1737C58.7229 52.1737 62.3751 48.521 62.3751 44.0311C62.3751 39.5414 58.7229 35.8887 54.2338 35.8887C52.2921 35.8887 50.4593 36.5623 48.9943 37.8005C49.0043 38.0138 49.0094 38.2248 49.0094 38.4326C49.0094 41.3102 48.1129 44.1339 46.4688 46.4819C46.5829 46.8435 46.7226 47.1971 46.8871 47.5405C48.6417 48.6676 50.1919 50.0652 51.5055 51.7046Z" fill="#EBB035"/>
<path d="M55.6564 69.9904L67.6998 70L67.7253 64.8166C67.7253 60.2326 64.9758 55.8238 60.9308 53.7607C58.9168 55.1476 56.4983 55.8836 54.041 55.8429C55.1173 58.2354 55.6896 60.8219 55.6896 63.4046L55.6564 69.9904Z" fill="#EBB035"/>
<path d="M58.3032 0H11.6983C9.9851 0 8.59707 1.39013 8.59961 3.10333L8.61891 15.82C8.62145 17.5295 10.0081 18.9139 11.7176 18.9139H44.6849C45.0764 20.4626 46.8914 26.082 52.9555 27.8881C52.9555 27.8881 52.0267 22.6831 53.5107 18.9139H57.4599C59.6369 18.9139 61.4018 17.1491 61.4018 14.9721V3.0987C61.4019 1.38729 60.0145 0 58.3032 0ZM22.9258 14.9149L19.3708 13.0457L15.8157 14.9149L16.4947 10.9557L13.6185 8.15201L17.5933 7.57436L19.3708 3.9722L21.1483 7.57436L25.1231 8.15201L22.2469 10.9559L22.9258 14.9149ZM38.5565 14.9149L35.0014 13.0457L31.4464 14.9149L32.1253 10.9557L29.2492 8.15186L33.2239 7.57421L35.0014 3.9722L36.779 7.57436L40.7537 8.15201L37.8776 10.9559L38.5565 14.9149ZM54.1871 14.9149L50.6321 13.0457L47.077 14.9149L47.7559 10.9557L44.8798 8.15186L48.8546 7.57421L50.6321 3.97205L52.4096 7.57421L56.3843 8.15186L53.5082 10.9557L54.1871 14.9149Z" fill="#EBB035"/>
</g>
<defs>
<clipPath id="clip0_303_16873">
<rect width="70" height="70" fill="white"/>
</clipPath>
</defs>
</svg>
